<svg xmlns="http://www.w3.org/2000/svg" width="17.057" height="21" viewBox="0 0 17.057 21">
  <path id="angle-double-up-solid" d="M8.831,66.635l6.822,6.822a1.2,1.2,0,0,1,0,1.7L14.52,76.291a1.2,1.2,0,0,1-1.7,0L7.979,71.461,3.143,76.3a1.2,1.2,0,0,1-1.7,0L.3,75.163a1.2,1.2,0,0,1,0-1.7L7.126,66.64A1.2,1.2,0,0,1,8.831,66.635ZM7.126,57l-1.41,1.41L2.768,61.361.3,63.826a1.2,1.2,0,0,0,0,1.7L1.437,66.66a1.2,1.2,0,0,0,1.7,0l4.836-4.836L11.5,65.349l1.311,1.311a1.2,1.2,0,0,0,1.7,0l1.134-1.134a1.2,1.2,0,0,0,0-1.7l-3.768-3.768L8.821,57a1.193,1.193,0,0,0-1.7,0Z" transform="translate(0.55 -56.15)" fill="#E50037" stroke="#fff" stroke-width="1"/>
</svg>
